# xmcd
# 
# Track frame offsets:
#     150
#     36020
#     48982
#     69577
#     96345
#     118305
#     150380
#     161680
# 
# Disc length: 2530
# 
# Revision: 3
# Processed by: cddbd v1.5.2PL0 Copyright (c) Steve Scherf et al.
# Submitted via: BonkEnc v1.0
# 
DISCID=6509e008
DTITLE=Black Sabbath - Paranoid
DYEAR=1970
DGENRE=Heavy Metal
TTITLE0=War Pigs
TTITLE1=Paranoid
TTITLE2=Planet Caravan
TTITLE3=Iron Man
TTITLE4=Electric Funeral
TTITLE5=Hand Of Doom
TTITLE6=Rat Salad
TTITLE7=Fairies Wear Boots
EXTD=YEAR: 1970
EXTT0=
EXTT1=
EXTT2=
EXTT3=
EXTT4=
EXTT5=
EXTT6=
EXTT7=
PLAYORDER=
